<svg width="31" height="31" viewBox="0 0 31 31" fill="none" xmlns="http://www.w3.org/2000/svg">
<path d="M31 15.5007C31 22.8729 25.8495 29.0303 18.9521 30.6012V17.7247H22.6769V13.4249H18.9145V12.4652C18.9145 10.6223 19.7209 9.12441 21.6397 9.12441C22.4085 9.12441 23.0233 9.24014 23.5231 9.39347L23.7524 4.90129C22.9459 4.6713 21.95 4.5165 20.6438 4.5165C18.955 4.5165 16.919 5.01776 15.4609 6.39918C13.7707 7.93539 13.0799 10.4306 13.0799 12.6952V13.4242H10.6223V17.724H13.0792V30.7929C5.67161 29.6289 0 23.2356 0 15.5007C0 6.94024 6.94024 5.87158e-08 15.5007 5.87158e-08C24.0612 -0.000737089 31 6.93951 31 15.5007Z" fill="#FEFEFE"/>
</svg>
