<svg width="31" height="31" viewBox="0 0 31 31" fill="none" xmlns="http://www.w3.org/2000/svg">
<path d="M25.4723 27.2885C22.784 29.559 19.2965 31 15.5002 31C9.85117 31 4.89232 27.8879 2.2041 23.3469L3.21051 18.7077L7.67148 17.8795C8.70684 21.2216 11.831 23.6739 15.5002 23.6739C17.2802 23.6739 18.9332 23.1108 20.2955 22.1117L24.5822 22.7657L25.4723 27.2885Z" fill="#59C36A"/>
<path d="M25.4721 27.2885L24.582 22.7656L20.2953 22.1117C18.933 23.1107 17.28 23.6738 15.5 23.6738V31C19.2963 31 22.7838 29.559 25.4721 27.2885Z" fill="#00A66C"/>
<path d="M7.32617 15.5C7.32617 16.3354 7.45332 17.1347 7.67129 17.8794L2.20391 23.3468C0.841602 21.0582 0 18.3698 0 15.5C0 12.63 0.841602 9.94175 2.20391 7.65308L6.59192 8.40828L7.67129 13.1205C7.45332 13.8651 7.32617 14.6643 7.32617 15.5Z" fill="#FFDA2D"/>
<path d="M31 15.5C31 20.2226 28.8143 24.4549 25.4721 27.2885L20.2953 22.1117C21.3488 21.3488 22.2389 20.3316 22.8201 19.1328H15.5C14.9913 19.1328 14.5918 18.7331 14.5918 18.2246V12.7754C14.5918 12.2667 14.9913 11.8672 15.5 11.8672H29.8375C30.2734 11.8672 30.6549 12.1759 30.7275 12.6119C30.9092 13.5564 31 14.5372 31 15.5Z" fill="#4086F4"/>
<path d="M22.8202 19.1328C22.2389 20.3316 21.3488 21.3488 20.2954 22.1117L25.4721 27.2885C28.8143 24.4549 31 20.2227 31 15.5C31 14.5372 30.9092 13.5564 30.7275 12.6119C30.6549 12.1759 30.2734 11.8672 29.8374 11.8672H15.5V19.1328H22.8202Z" fill="#4175DF"/>
<path d="M25.7266 4.32904C25.7447 4.58334 25.6357 4.81953 25.4723 5.00111L21.5852 8.87006C21.2764 9.19701 20.7678 9.23334 20.4046 8.96088C18.9695 7.88926 17.2802 7.32617 15.5002 7.32617C11.831 7.32617 8.70684 9.77826 7.67148 13.1205L2.2041 7.65313C4.89232 3.11211 9.85117 0 15.5002 0C19.1148 0 22.6387 1.33203 25.3996 3.65697C25.5994 3.82051 25.7084 4.07474 25.7266 4.32904Z" fill="#FF641A"/>
<path d="M20.4043 8.96088C20.7676 9.2334 21.2761 9.19701 21.5849 8.87006L25.472 5.00111C25.6356 4.81953 25.7445 4.5834 25.7263 4.32904C25.7081 4.07468 25.5992 3.82051 25.3994 3.65697C22.6385 1.33203 19.1146 0 15.5 0V7.32617C17.28 7.32617 18.9693 7.88926 20.4043 8.96088Z" fill="#F03800"/>
</svg>
