<svg id="Capa_1" data-name="Capa 1" xmlns="http://www.w3.org/2000/svg" viewBox="0 0 374.53 161.42"><defs><style>.cls-1{fill:#fceeea;}.cls-2{fill:#ea5536;}.cls-3,.cls-4{font-size:128.96px;font-family:Etalasi;}.cls-3{fill:#fbfbfb;}.cls-4{fill:#161224;}</style></defs><title>logo4</title><path class="cls-1" d="M151.85,109.86C115.43,135.58,77,140.2,58.38,123.92,52.54,118.8,43,106.68,43.78,91.24c.5-10.09,5.4-21.82,14.42-28.29,27.86-20,105.94.65,121.11,9.82,51,30.86,109.94,86.1,145.24,72.88,32.15-12.05,35-50.19,36-56.6.45-2.94,6.3-45.46-19-66.27C316,1.74,264.66,7.94,228.16,48.71c0,0,42.53-33.68,87.44-17.62,0,0,32.86,14.88,16.25,58.15,0,0-24.1,44.9-92.56-4,0,0-81.78-58.42-100-65,0,0-62.25-38.34-107.34,22.27,0,0-31,54.77,2.92,92.19C34.83,134.69,83,186,151.85,109.86Z" transform="translate(-18.94 9.82)"/><path class="cls-2" d="M154.4,103.16C118,128.88,79.52,133.5,60.93,117.22,55.08,112.1,45.56,100,46.32,84.54c.5-10.09,5.41-21.83,14.42-28.3,27.87-20,106,.65,121.12,9.83,51,30.86,109.94,86.09,145.23,72.87,32.16-12,35-50.19,36-56.59.44-2.94,6.29-45.46-19-66.27C318.5-5,267.21,1.23,230.7,42c0,0,42.54-33.68,87.45-17.61,0,0,32.86,14.88,16.25,58.14,0,0-24.1,44.91-92.56-4,0,0-81.79-58.42-100-65,0,0-62.25-38.34-107.34,22.27,0,0-31,54.76,2.92,92.19C37.38,128,85.57,179.29,154.4,103.16Z" transform="translate(-18.94 9.82)"/><text class="cls-3" transform="translate(1.26 120.64)">Atacha</text><text class="cls-4" transform="translate(0 118)">Atacha</text></svg>