<svg id="Capa_1" data-name="Capa 1" xmlns="http://www.w3.org/2000/svg" viewBox="0 0 400 146.94"><defs><style>.cls-1{fill:#ea592d;}.cls-2{fill:#fbfbfb;}.cls-3{fill:#1e2022;}</style></defs><title>Mesa de trabajo 1</title><path class="cls-1" d="M154.4,103.16C36.71,184.41.29,27.49,118.66,49.21c57,6.28,74.54,23.65,123.1,57.54C264.05,122,285.17,135,303.7,139.49c57,13.29,74.26-75.34,49.07-113.84C325.71-11.63,265.25,3,230.7,42c11.9-10.53,60.48-33.57,91.64-15.1,35.15,29.36,11,76-22.3,74.43-41.2,4.82-139.56-90.53-179.12-96.41C16.32-18.89-1.36,114.09,48.78,136.52,67,147,105.39,157.22,154.4,103.16Z"/><path class="cls-2" d="M108.42,4c1.73-.44,12.21,2.09,15.42,8H124a6.75,6.75,0,0,1,1.77-2.5c29.37,1.94-13.6,50.85-13.48,71.66,13.55-.38,12.08,8.91,3.15,15.93,0-1.39-1.16-3.66-6.17-4.41-2.6,16.18-4.71,23.47,3.68,32.87l-.64.45c-14.86-2.49-22.53-17-18.85-33-28.93-2.41-45.27,33.45-61.37,33,4.38.44-8.27-3.2-11.92-8.63,21.35.83,76.22-74.88,87.9-103.21l-.31-.19C95.5,16.89,70.27,32.44,70,45.08l-.5.31c.55.42,1,.86,1.5,1.33V47C27.15,37.76,93.69.43,108.42,4ZM81,84.87v.19q7.43-1.64,15.18-3A240.7,240.7,0,0,1,106.69,49Q96.3,65.23,81,84.87Z"/><path class="cls-2" d="M139.15,42.68c9.26-17.64,8.93-33.86,25.63-16.95q-2.7,4.61-7.75,15.33C168.75,39.75,190.72,44.4,184,56c-6.39-5.2-18.37-4.5-29-3.9C140.81,82.2,130.08,139.36,159,75.72q4.2,1.14,5.46,3.24c-27.41,68.19-52.39,15.19-28.9-27.15C110.56,57.88,119.34,41.64,139.15,42.68Z"/><path class="cls-2" d="M175.56,54.71c4.36-.15,13.56,3.43,19.4,9.29h.3A67.88,67.88,0,0,1,200,55c1.48-.35,15.22,6.3,12.74,8.51-9.73,16.32-19.56,50-7.21,40.41C216.24,95.23,218.82,66.5,228,77.44c-21,59.47-44.31,21.49-41,11.4V89h-.44a87,87,0,0,1-20.84,22C137.32,110.4,160.36,54.4,175.56,54.71Zm-7.22,46.72C176,94.71,186.55,79.64,186,70.3,185.73,43.84,155.35,111.71,168.34,101.43Z"/><path class="cls-2" d="M242.51,55c29.68,5,4.45,37.41-3.51,25.64V80.4c4.72-3,10.3-9.9,12-15.39-9.39,0-22.17,26.48-18.28,38.84,16.2,14.6,30.36-42.09,37.85-26.56C235.62,154.14,189.55,78.06,242.51,55Z"/><path class="cls-2" d="M288.6,18c1.85.45,17.87,5.1,10.58,12.21C290.05,47.55,282.51,66.43,275.47,89h.31c11.61-15,24-47.52,41.28-26.7-20.81,51.08-11.62,49.69,6.16,11.83l.19-.13a10.22,10.22,0,0,1,5.68,3.47c-19.6,52.37-50.23,32.4-31.41-8-12.7,16.93-20.75,29-26.23,41.62q-10.47-3.09-14.63-8.26C259,82.53,277.88,34.48,288.1,18Z"/><path class="cls-2" d="M340.56,54.71c4.36-.15,13.56,3.43,19.4,9.29h.58a68.83,68.83,0,0,1,4.78-9h-.23c1.47-.31,15.16,6.31,12.68,8.51-9.73,16.32-19.56,50-7.21,40.41C381.23,95.24,383.82,66.5,393,77.44c-21.36,61.17-45.92,18.46-41,11.4V89h-.15A87,87,0,0,1,331,111C302.22,110.82,325.23,54.43,340.56,54.71Zm-6.22,46.72C358,81.94,356.92,42,337.42,80.69,335,86.24,326.81,108.14,334.34,101.43Z"/><path class="cls-3" d="M107.16,1c1.71-.51,12.22,2.46,15.43,8h.19a9.22,9.22,0,0,1,1.76-2.13c29.38,1.94-13.6,50.84-13.48,71.65,13.55-.38,12.09,8.92,3.15,15.93,0-1.39-1.15-3.66-6.17-4.4-2.29,15.64-4.47,23.29,3.76,32.51l-.62.44c-14.1-2.5-21.92-15.83-18.28-32-36.56-2.38-48.34,51.57-74,23.73,21.35.83,76.23-74.87,87.91-103.2l-.32-.19C93.92,14.32,69.9,29.58,68,42.44c.41.64.56.12,1,2C26.72,34.39,92.31-1.78,107.16,1ZM80,82.24v.19q7.43-1.64,15.18-3a240.6,240.6,0,0,1,10.51-33.05Q95.3,62.6,80,82.24Z"/><path class="cls-3" d="M138.15,39.68c9.26-17.64,8.93-33.86,25.63-16.95q-2.7,4.61-7.75,15.33C167.75,36.75,189.72,41.4,183,53c-6.39-5.2-18.37-4.5-29-3.9C139.81,79.2,129.08,136.36,158,72.72q4.2,1.14,5.46,3.24c-27.41,68.19-52.39,15.19-28.9-27.15C109.56,54.88,118.34,38.64,138.15,39.68Z"/><path class="cls-3" d="M174.56,51.71c4.36-.15,13.56,3.43,19.4,9.29h0a67.88,67.88,0,0,1,4.77-9c1.89-.2,15.18,5.9,13,8.51-10.39,17.2-19.63,52-6.38,39.51C215,91.92,218,63.6,227,74.44c-21.34,61.24-46.89,19-41,11.77V86h-.7a79.62,79.62,0,0,1-20.84,22C136.6,107.11,159.14,51.64,174.56,51.71Zm-7.22,46.72C175,91.71,185.55,76.64,185,67.3,184.73,40.84,154.35,108.71,167.34,98.43Z"/><path class="cls-3" d="M241.06,52c30.4,4.74,4.89,38.87-3.06,26.53v-.26c3.47-1.09,17.23-19.5,9.77-16.17-11.89,5.48-21.51,32.47-16.42,39.39,19.59,9.55,30.31-41.67,39.25-27.2C233.62,151.24,185.44,74.94,241.06,52Z"/><path class="cls-3" d="M287.6,15c1.85.45,17.87,5.1,10.58,12.21C289.05,44.55,281.51,63.43,274.47,86h.31c11.62-15,24-47.52,41.28-26.7-20.81,51.08-11.62,49.69,6.16,11.83l.19-.13a10.22,10.22,0,0,1,5.68,3.47c-19.6,52.37-50.23,32.4-31.41-8-12.7,16.93-20.75,29-26.23,41.62q-10.47-3.09-14.63-8.26C258,79.53,276.88,31.48,287.1,15Z"/><path class="cls-3" d="M339.56,51.71c4.36-.15,13.56,3.43,19.4,9.29h.33a67.88,67.88,0,0,1,4.77-9c1.48-.33,15.19,6.3,12.71,8.51-10.39,17.21-19.63,52-6.38,39.51C380,91.92,383,63.6,392,74.44c-20.91,59-44.31,22.32-41,11.56h-.41a79.45,79.45,0,0,1-20.84,22C301.31,107.45,324.34,51.4,339.56,51.71Zm-7.22,46.72C356,78.94,354.92,39,335.42,77.69,333,83.24,324.81,105.14,332.34,98.43Z"/></svg>